<svg width="621" height="689" viewBox="0 0 621 689" fill="none" xmlns="http://www.w3.org/2000/svg">
<line y1="-0.5" x2="215.745" y2="-0.5" transform="matrix(-0.853714 -0.520742 0.579446 -0.815011 354.951 113.186)" stroke="#FFD166"/>
<line y1="-0.5" x2="250" y2="-0.5" transform="matrix(-0.871385 -0.4906 0.55062 -0.834756 218.397 488.488)" stroke="#FFD166"/>
<line y1="-0.5" x2="235.223" y2="-0.5" transform="matrix(-0.706628 0.707586 -0.759391 -0.650635 170.766 0.838055)" stroke="#FFD166"/>
<line y1="-0.5" x2="195" y2="-0.5" transform="matrix(-0.706628 0.707586 -0.759391 -0.650635 354.766 350.838)" stroke="#FFD166"/>
<line y1="-1.5" x2="396.316" y2="-1.5" transform="matrix(0.884143 0.467216 -0.524438 0.851449 4.55078 167.279)" stroke="#FFD166" stroke-width="3"/>
<line x1="356.451" y1="0.838055" x2="356.451" y2="491.838" stroke="#FFD166" stroke-width="3"/>
<line y1="-0.5" x2="286.372" y2="-0.5" transform="matrix(0.913498 0.406843 -0.545585 0.838055 354.951 0.838055)" stroke="#FFD166"/>
<line y1="-0.5" x2="208.257" y2="-0.5" transform="matrix(-0.785087 0.619386 -0.755514 -0.655133 616.551 117.347)" stroke="#FFD166"/>
<line y1="-0.5" x2="294.962" y2="-0.5" transform="matrix(0.554309 0.832311 -0.91 0.414608 453.051 246.338)" stroke="#FFD166"/>
<path d="M120.842 593.734C115.509 593.734 111.37 591.537 108.426 587.142V583.686C109.578 586.246 111.242 588.251 113.418 589.702C115.637 591.153 118.282 591.878 121.354 591.878C123.488 591.878 125.45 591.409 127.242 590.47C129.077 589.531 130.528 588.209 131.594 586.502C132.661 584.795 133.194 582.833 133.194 580.614C133.194 578.609 132.853 576.881 132.17 575.43C131.488 573.979 130.357 572.593 128.778 571.27C127.2 569.905 124.917 568.305 121.93 566.47L119.882 565.19C118.005 564.038 116.49 563.014 115.338 562.118C114.186 561.222 113.184 560.177 112.33 558.982C111.221 557.318 110.666 555.398 110.666 553.222C110.666 550.321 111.605 548.059 113.482 546.438C115.36 544.817 117.749 544.006 120.65 544.006C124.576 544.006 127.69 545.457 129.994 548.358V551.622C129.013 549.83 127.669 548.422 125.962 547.398C124.256 546.374 122.378 545.862 120.33 545.862C118.197 545.862 116.405 546.523 114.954 547.846C113.504 549.169 112.778 550.939 112.778 553.158C112.778 555.334 113.44 557.211 114.762 558.79C116.128 560.326 118.41 562.011 121.61 563.846C125.536 566.15 128.586 568.241 130.762 570.118C132.298 571.526 133.408 573.083 134.09 574.79C134.816 576.497 135.178 578.395 135.178 580.486C135.178 583.131 134.56 585.457 133.322 587.462C132.085 589.467 130.378 591.025 128.202 592.134C126.026 593.201 123.573 593.734 120.842 593.734ZM155.463 593.542C152.733 593.542 150.194 592.859 147.847 591.494C145.501 590.129 143.645 588.294 142.279 585.99C140.914 583.643 140.231 581.126 140.231 578.438C140.231 575.75 140.914 573.254 142.279 570.95C143.645 568.603 145.501 566.747 147.847 565.382C150.194 564.017 152.733 563.334 155.463 563.334C158.237 563.334 160.861 564.081 163.335 565.574C165.81 567.025 167.538 568.923 168.519 571.27V564.038H170.567V592.838H168.519V585.67C167.367 588.059 165.575 589.979 163.143 591.43C160.754 592.838 158.194 593.542 155.463 593.542ZM155.591 591.75C157.938 591.75 160.114 591.153 162.119 589.958C164.125 588.721 165.703 587.099 166.855 585.094C168.05 583.046 168.647 580.827 168.647 578.438C168.647 576.091 168.05 573.894 166.855 571.846C165.661 569.798 164.061 568.177 162.055 566.982C160.05 565.745 157.874 565.126 155.527 565.126C153.181 565.126 150.983 565.745 148.935 566.982C146.93 568.219 145.309 569.862 144.071 571.91C142.877 573.958 142.279 576.155 142.279 578.502C142.279 580.849 142.877 583.046 144.071 585.094C145.309 587.099 146.951 588.721 148.999 589.958C151.047 591.153 153.245 591.75 155.591 591.75ZM189.589 593.414C187.584 593.414 185.749 592.966 184.085 592.07C182.421 591.131 181.099 589.83 180.117 588.166C179.136 586.502 178.645 584.646 178.645 582.598V544.838H180.693V582.598C180.693 584.305 181.077 585.841 181.845 587.206C182.656 588.571 183.744 589.659 185.109 590.47C186.475 591.238 187.968 591.622 189.589 591.622V593.414ZM207.152 593.414C205.146 593.414 203.312 592.966 201.648 592.07C199.984 591.131 198.661 589.83 197.68 588.166C196.698 586.502 196.208 584.646 196.208 582.598V544.838H198.256V582.598C198.256 584.305 198.64 585.841 199.408 587.206C200.218 588.571 201.306 589.659 202.672 590.47C204.037 591.238 205.53 591.622 207.152 591.622V593.414ZM225.674 605.574C220.896 605.574 217.12 603.867 214.346 600.454V597.19C215.754 599.409 217.354 601.051 219.146 602.118C220.938 603.227 223.029 603.782 225.418 603.782C227.85 603.782 229.92 603.27 231.626 602.246C233.376 601.222 234.698 599.814 235.594 598.022C236.49 596.273 236.938 594.31 236.938 592.134V587.27C235.914 589.275 234.357 590.833 232.266 591.942C230.218 593.009 227.978 593.542 225.546 593.542C223.114 593.542 220.96 593.009 219.082 591.942C217.205 590.875 215.733 589.382 214.666 587.462C213.642 585.542 213.13 583.323 213.13 580.806V564.038H215.178V580.806C215.178 583.11 215.648 585.094 216.586 586.758C217.568 588.379 218.848 589.617 220.426 590.47C222.005 591.323 223.733 591.75 225.61 591.75C227.658 591.75 229.557 591.259 231.306 590.278C233.056 589.254 234.421 587.91 235.402 586.246C236.426 584.539 236.938 582.726 236.938 580.806V564.038H238.986V591.942C238.986 594.502 238.453 596.806 237.386 598.854C236.362 600.945 234.848 602.587 232.842 603.782C230.837 604.977 228.448 605.574 225.674 605.574Z" fill="#FFD166"/>
<path d="M432.013 543.838H434.765C439.757 543.838 443.597 545.161 446.285 547.806C449.016 550.451 450.381 554.227 450.381 559.134C450.381 561.95 449.698 564.531 448.333 566.878C447.01 569.225 445.197 571.081 442.893 572.446C440.589 573.769 438.05 574.43 435.277 574.43H434.829L451.341 591.838H448.589L434.061 576.606V591.838H432.013V543.838ZM435.213 572.574C437.645 572.574 439.864 571.977 441.869 570.782C443.874 569.587 445.453 567.987 446.605 565.982C447.757 563.934 448.333 561.673 448.333 559.198C448.333 554.889 447.16 551.561 444.813 549.214C442.509 546.867 439.202 545.694 434.893 545.694H434.061V572.574H435.213ZM471.443 590.814C473.661 590.814 475.773 590.238 477.779 589.086C479.784 587.934 481.448 586.355 482.771 584.35V587.614C481.192 589.363 479.464 590.643 477.587 591.454C475.709 592.222 473.576 592.606 471.187 592.606C468.541 592.606 466.045 591.902 463.699 590.494C461.395 589.086 459.539 587.209 458.131 584.862C456.765 582.515 456.083 580.019 456.083 577.374C456.083 574.515 456.765 571.955 458.131 569.694C459.496 567.39 461.352 565.598 463.699 564.318C466.088 563.038 468.733 562.398 471.635 562.398C476.072 562.398 479.848 564.147 482.963 567.646L462.867 587.486C464.275 588.638 465.64 589.491 466.963 590.046C468.285 590.558 469.779 590.814 471.443 590.814ZM458.131 577.182C458.131 580.723 459.304 583.753 461.651 586.27L480.403 567.646C478.995 566.409 477.629 565.534 476.307 565.022C474.984 564.467 473.405 564.19 471.571 564.19C468.968 564.19 466.643 564.766 464.595 565.918C462.589 567.027 461.011 568.563 459.859 570.526C458.707 572.489 458.131 574.707 458.131 577.182ZM496.34 592.542C494.292 592.542 492.479 592.201 490.9 591.518C489.321 590.793 488.191 589.875 487.508 588.766V585.374C488.319 587.209 489.428 588.574 490.836 589.47C492.244 590.323 494.036 590.75 496.212 590.75C498.303 590.75 499.988 590.11 501.268 588.83C502.548 587.507 503.188 585.822 503.188 583.774C503.188 582.025 502.825 580.681 502.1 579.742C501.375 578.761 500.201 577.779 498.58 576.798L496.148 575.39C494.399 574.323 493.076 573.491 492.18 572.894C491.327 572.254 490.644 571.55 490.132 570.782C489.62 569.971 489.364 569.033 489.364 567.966C489.364 566.259 489.961 564.894 491.156 563.87C492.351 562.846 493.908 562.334 495.828 562.334C498.175 562.334 500.137 562.867 501.716 563.934V566.75C500.393 565.001 498.495 564.126 496.02 564.126C494.655 564.126 493.545 564.467 492.692 565.15C491.839 565.833 491.412 566.707 491.412 567.774C491.412 568.713 491.668 569.545 492.18 570.27C492.692 570.953 493.396 571.593 494.292 572.19C495.231 572.787 496.767 573.683 498.9 574.878C501.076 576.115 502.676 577.395 503.7 578.718C504.724 579.998 505.236 581.683 505.236 583.774C505.236 586.419 504.361 588.553 502.612 590.174C500.905 591.753 498.815 592.542 496.34 592.542ZM525.182 592.67C522.409 592.67 519.849 592.009 517.502 590.686C515.198 589.363 513.363 587.55 511.998 585.246C510.633 582.942 509.95 580.339 509.95 577.438C509.95 574.75 510.633 572.275 511.998 570.014C513.363 567.71 515.219 565.875 517.566 564.51C519.955 563.145 522.579 562.462 525.438 562.462C527.827 562.462 529.875 562.846 531.582 563.614C533.289 564.382 534.953 565.577 536.574 567.198V570.654C535.166 568.563 533.587 566.985 531.838 565.918C530.131 564.809 527.998 564.254 525.438 564.254C523.091 564.254 520.873 564.873 518.782 566.11C516.734 567.305 515.091 568.926 513.854 570.974C512.617 573.022 511.998 575.219 511.998 577.566C511.998 580.126 512.595 582.43 513.79 584.478C514.985 586.483 516.585 588.062 518.59 589.214C520.638 590.323 522.835 590.878 525.182 590.878C529.961 590.878 533.758 588.723 536.574 584.414V587.87C535.038 589.491 533.331 590.707 531.454 591.518C529.619 592.286 527.529 592.67 525.182 592.67ZM542.239 543.838H544.287V568.99C545.183 567.07 546.698 565.491 548.831 564.254C551.007 562.974 553.204 562.334 555.423 562.334C559.476 562.334 562.591 563.443 564.767 565.662C566.986 567.881 568.095 571.017 568.095 575.07V591.838H566.047V575.07C566.047 571.571 565.108 568.883 563.231 567.006C561.396 565.086 558.794 564.126 555.423 564.126C553.375 564.126 551.498 564.617 549.791 565.598C548.084 566.537 546.74 567.859 545.759 569.566C544.778 571.23 544.287 573.065 544.287 575.07V591.838H542.239V543.838Z" fill="#FFD166"/>
</svg>
