<svg width="590" height="492" viewBox="0 0 590 492" fill="none" xmlns="http://www.w3.org/2000/svg">
<line y1="-0.5" x2="215.745" y2="-0.5" transform="matrix(-0.853714 -0.520742 0.579446 -0.815011 354.951 113.212)" stroke="#FFD166"/>
<line y1="-0.5" x2="250" y2="-0.5" transform="matrix(-0.871385 -0.4906 0.55062 -0.834756 218.397 488.514)" stroke="#FFD166"/>
<line y1="-0.5" x2="235.223" y2="-0.5" transform="matrix(-0.706628 0.707586 -0.759391 -0.650635 170.766 0.864532)" stroke="#FFD166"/>
<line y1="-0.5" x2="195" y2="-0.5" transform="matrix(-0.706628 0.707586 -0.759391 -0.650635 354.766 350.865)" stroke="#FFD166"/>
<line y1="-1.5" x2="396.316" y2="-1.5" transform="matrix(0.884143 0.467216 -0.524438 0.851449 4.55078 167.305)" stroke="#FFD166" stroke-width="3"/>
<line x1="356.451" y1="0.864532" x2="356.451" y2="491.865" stroke="#FFD166" stroke-width="3"/>
<line y1="-0.5" x2="261.043" y2="-0.5" transform="matrix(0.894873 0.44632 -0.50258 0.864531 354.951 0.864532)" stroke="#FFD166"/>
<line y1="-0.5" x2="194.82" y2="-0.5" transform="matrix(-0.74941 0.662106 -0.717407 -0.696654 588.551 117.373)" stroke="#FFD166"/>
<line y1="-0.5" x2="285.633" y2="-0.5" transform="matrix(0.511145 0.859494 -0.890755 0.454485 442.551 246.365)" stroke="#FFD166"/>
</svg>
